<svg xmlns="http://www.w3.org/2000/svg" xmlns:xlink="http://www.w3.org/1999/xlink" viewBox="0 0 554.7 146.73"><defs><style>.cls-1{fill:url(#New_Gradient_Swatch);}.cls-2{fill:#e6e6e6;}</style><linearGradient id="New_Gradient_Swatch" x1="119.37" y1="87.76" x2="54.19" y2="43.97" gradientUnits="userSpaceOnUse"><stop offset="0" stop-color="#5baba6"/><stop offset="1" stop-color="#94dcd0"/></linearGradient></defs><g id="Layer_2" data-name="Layer 2"><g id="Layer_1-2" data-name="Layer 1"><path class="cls-1" d="M79.76,29.82C74.87,26.63,70,23.36,65.2,20.09c-1.85-1.24-3.67-2.53-5.51-3.83a32.21,32.21,0,0,0-1.33,29,31.11,31.11,0,0,0-3.76-4.58,31.76,31.76,0,0,0-5.26-4.29c-1.16,3.39-2.2,6.81-3.15,10.27a1.16,1.16,0,0,0,.61,1.49c4.82,3.15,9.59,6.37,14.45,9.46q1.16.73,2.34,1.41a31.73,31.73,0,0,0-2.53-8.92A31.86,31.86,0,0,0,70.18,59,179.34,179.34,0,0,1,80.45,32.15C81,31,80.78,30.49,79.76,29.82ZM65,9.33a32.12,32.12,0,0,0-3.29,3.84l21,14.32A208.16,208.16,0,0,1,98,1.78,31.84,31.84,0,0,0,65,9.33ZM117.4,87.12l-12.64-4.27a132.2,132.2,0,0,0-3.82,26.8q6.5,1.62,13,2.9A32.22,32.22,0,0,0,117.4,87.12ZM75.88,65.66C84.51,70,93.25,74,102.27,77.55c.76-2.75,1.58-5.46,2.48-8.13A31.55,31.55,0,0,0,90.35,64,31.67,31.67,0,0,0,110,54.81c.25-.25.5-.5.72-.76.64-1.46,1.3-2.92,2-4.36L84.2,32.86A182.26,182.26,0,0,0,73.51,60.92a31.8,31.8,0,0,0,10.27,3A31.75,31.75,0,0,0,75.88,65.66Zm25.4,58.71a31.93,31.93,0,0,0,7.9-5.78,29.69,29.69,0,0,0,2.49-2.8l-10.84-2C100.81,117.34,101,120.85,101.28,124.37Zm6.59-52.49q-1.17,3.62-2.17,7.33l10.07,3.42a32,32,0,0,0-6.45-9.38C108.85,72.77,108.37,72.31,107.87,71.88ZM68.21,98.69c6.81,2.49,13.59,5,20.42,7.48,2.77,1,5.63,1.68,8.59,2.55a143.12,143.12,0,0,1,4-27.26L71.63,68a155.07,155.07,0,0,0-4.31,29.49C67.29,98.22,67.6,98.47,68.21,98.69Zm-.9,3.68c0,.3-.06.44-.06.59a118.09,118.09,0,0,0,1.51,19.45A31.83,31.83,0,0,0,97.68,126a122.89,122.89,0,0,1-.59-13.44A220.39,220.39,0,0,1,67.31,102.37ZM60.79,77.05a32,32,0,0,0,3.09-13.74c-4.27-2.55-8.54-5.1-12.79-7.69-2.05-1.26-4-2.69-6.13-4.12a154.59,154.59,0,0,0-4.39,30.88,2,2,0,0,0,.78,1.35q4.29,3.13,8.85,5.86A30.24,30.24,0,0,0,54.46,86a31.35,31.35,0,0,0,3.37-4,31.93,31.93,0,0,0-2.9,10.21c1.25.69,2.51,1.34,3.79,2l4.87,2.39a5.73,5.73,0,0,0,.09-.64,153.94,153.94,0,0,1,3.55-25.58,31.16,31.16,0,0,0-3.08,2.7A32.73,32.73,0,0,0,60.79,77.05Zm1.6,23.08c-2.55-1.26-5.12-2.52-7.65-3.84A32,32,0,0,0,64,118.46c.15.16.31.31.47.45a121.63,121.63,0,0,1-1-17A1.69,1.69,0,0,0,62.39,100.13ZM110.13,9.46a31.73,31.73,0,0,0-8.63-6.2A203.19,203.19,0,0,0,85.83,29.48l28.52,16.85q2.16-4.3,4.52-8.42A32.07,32.07,0,0,0,110.13,9.46Zm-82,22,0,.05A89.3,89.3,0,0,0,40,42.93c.87.71,1.8,1.35,2.73,2a3.2,3.2,0,0,0,.21-.41q1.42-5.07,3.12-10A31.6,31.6,0,0,0,28.1,31.47ZM40.51,87.93c0,.24,0,.46,0,.68,0,1.86,0,3.71.13,5.55a31,31,0,0,0,6.08-2.41C44.63,90.51,42.6,89.21,40.51,87.93Zm.39-39.55q-5.61-4.79-11.14-9.65c-1.14-1-2.14-2.16-3.28-3.33a7.3,7.3,0,0,0-.27.75,147.83,147.83,0,0,0-3.82,28A3.71,3.71,0,0,0,23,66.25a71.12,71.12,0,0,0,10,10.92c1.17,1.07,2.42,2,3.75,3.18.07-.39.1-.53.11-.67A159.82,159.82,0,0,1,41.5,50,1.41,1.41,0,0,0,40.9,48.38ZM36.68,85.77a2.19,2.19,0,0,0-.76-1.39c-2.58-2.29-5.27-4.46-7.8-6.81-2-1.86-3.84-3.93-5.79-5.95,0,.22,0,.4,0,.58a115.15,115.15,0,0,0,2.33,21c.09.44.17.88.27,1.33a31.79,31.79,0,0,0,12,.41C36.72,91.91,36.66,88.84,36.68,85.77Zm-22-49.44c-.19,1.65-.35,3.31-.5,5a24.85,24.85,0,0,0,1.46,11.19c.91,2.37,1.95,4.7,2.93,7.05l.28-.1a1.08,1.08,0,0,0,.09-.29,161.57,161.57,0,0,1,4.32-26.69h0A31.23,31.23,0,0,0,14.65,36.33Zm3.88,30.76a2,2,0,0,0-.16-.88c-1.23-2.07-2.5-4.12-3.92-6.45A136.22,136.22,0,0,0,19.14,84a2.46,2.46,0,0,0,.14-.57Q18.92,75.25,18.53,67.09ZM9.69,40.3l-.26.25A32.15,32.15,0,0,0,9.29,85.9a31.83,31.83,0,0,0,8.21,6A155.22,155.22,0,0,1,9.69,40.3Z"/><path class="cls-2" d="M166.58,92.76H193.4l9.19,15.76H138l42.41-72.65H144.69L144.82,21h64Z"/><path class="cls-2" d="M284.91,80v.64c0-.11,0-.21,0-.32S284.9,80.1,284.91,80Z"/><path class="cls-2" d="M350.22,65v43.54h-16V65h-2.78l-7.66-13,10.44-.14V21l16,9.41V51.84h11V65Z"/><path class="cls-2" d="M510.07,77.48a12.32,12.32,0,0,0-.42-3.18s0,0,0,0A11.2,11.2,0,0,0,499.3,66h-.05a10.84,10.84,0,0,0-9.47,4.89,16.21,16.21,0,0,0-2.4,7.94c-.07,1-.08,2-.08,2.9v26.8h-16V52h16v2.81c5.4-3.12,8.37-4.78,17.54-4.78,5,0,12.3,2.25,16.75,7.67C525.52,62.46,526,68,526,73.42v35.1h-16V79.78"/><path class="cls-2" d="M457.56,60.27a28.31,28.31,0,1,0-.12,40.12A28.18,28.18,0,0,0,457.56,60.27Zm-20,32.49A12.49,12.49,0,1,1,450,80.32,12.29,12.29,0,0,1,437.52,92.76Z"/><path class="cls-2" d="M384.84,84.8v23.79h-16V51.91h16v2.88a22.72,22.72,0,0,1,6.71-3.5,24,24,0,0,1,9.78-1.21c2.95.18,5,1.32,6.81,2l-2,15.73c-3.27-1.8-4.94-1.8-8.89-1.73a12.39,12.39,0,0,0-12.43,12.54"/><path class="cls-2" d="M316.37,60.27a28.17,28.17,0,0,0-32.46-5.48V51.84h-15.5v85.71l15.5,9.18v-41a28.33,28.33,0,0,0,32.46-45.48Zm-20,32.49a12.27,12.27,0,0,1-12.42-12.12c0-.11,0-.21,0-.32s0-.22,0-.32a12.43,12.43,0,1,1,12.42,12.76Z"/><path class="cls-2" d="M252.33,58.84a29.89,29.89,0,1,0-.12,42.36c2.39-2.39,3.41-3.42,4.82-6.3l-11.17-6.59c-3,5.17-9.44,7-15.31,7-6.8,0-13.44-4.63-14.05-10.29h44.08A30,30,0,0,0,252.33,58.84ZM218.21,73.39a12.42,12.42,0,0,1,24.67,0Z"/><path class="cls-2" d="M532.28,96.78a11.07,11.07,0,0,1,11.25-11.09A11.39,11.39,0,0,1,554.7,97.17a11.11,11.11,0,0,1-11.57,11A11.38,11.38,0,0,1,532.28,96.78Zm1.92,0a9.39,9.39,0,0,0,9.21,9.49,9.21,9.21,0,0,0,9.33-9.18,9.42,9.42,0,0,0-9.28-9.56A9.2,9.2,0,0,0,534.2,96.78Z"/><path class="cls-2" d="M546.89,97.81c.35-1.34.69-2.54,1-3.75.09-.37.23-.5.6-.49.79,0,1.57,0,2.39,0v7.07h-1.72V95.73l-.13,0c-.11.39-.23.79-.33,1.19-.3,1.13-.6,2.25-.87,3.39-.08.32-.22.41-.54.41-1.21,0-1.21,0-1.51-1.17s-.66-2.52-1.09-3.78v4.91h-1.77V93.58c.89,0,1.77,0,2.65,0,.11,0,.28.25.32.41.29,1,.56,2.1.83,3.15C546.74,97.33,546.79,97.5,546.89,97.81Z"/><path class="cls-2" d="M539.65,100.67h-2.23V95.35h-2.2V93.61h6.62v1.74h-2.19Z"/></g></g></svg>